<svg width="264" height="48" viewBox="0 0 264 48" fill="none" xmlns="http://www.w3.org/2000/svg">
<path d="M7.92447 0H14.2836L14.5771 1.26829L14.9685 2.34146L15.5555 3.31707L16.0446 3.90244L17.023 4.58537L18.0991 5.07317L18.8818 5.26829H20.4471L21.6211 4.97561L22.893 4.29268L23.6756 3.60976L24.4583 2.43902L24.8496 1.36585L25.1431 0H31.6001L34.9265 3.31707V25.2683L34.2416 25.3659L32.872 25.2683L32.7741 14.6341L32.4806 13.9512L31.8936 13.561L29.937 13.1707L27.002 12.7805L23.48 12.4878L21.0341 12.3902H18.4905L14.7728 12.5854L11.74 12.878L9.00064 13.2683L7.33747 13.6585L6.84831 14.1463L6.65264 14.7317V25.2683L6.45697 25.3659L4.50031 25.2683V3.41463L5.18514 2.63415L7.72881 0.097561L7.92447 0Z" fill="#17BC3D"/>
<path d="M4.59814 27.4146H6.55481L6.65264 27.5122L6.84831 29.0732L7.43531 30.8293L8.21797 32.2927L9.39197 33.561L10.7616 34.439L12.0335 35.0244L13.5988 35.4146L15.6533 35.7073L16.9251 35.8049H22.5016L25.3388 35.5122L27.002 35.122L28.2738 34.6342L29.5456 33.9512L30.7196 32.8781L31.5023 31.9024L32.0893 30.7317L32.5785 29.2683L32.872 27.4146H34.9265V37.0732L33.6546 37.561L33.3611 37.9512L32.7741 40.5854L31.7958 40.7805H31.0131L30.7196 38.8293V38.6342L30.0348 38.7317L28.763 39.3171L27.7846 40.6829L27.2955 40.8781L25.4366 41.0732L23.7735 41.1707H15.1641L12.6205 40.9756L11.74 40.7805L10.6638 39.3171L9.29414 38.7317L8.70714 38.6342L8.41364 40.6829L8.31581 40.7805H7.53314L6.75047 40.5854L6.45697 39.7073L6.06564 37.9512V37.6585L4.59814 37.0732L4.50031 36.9756V27.5122L4.59814 27.4146Z" fill="#17BC3D"/>
<path d="M4.50031 41.1707L5.57647 41.3658L7.92447 41.7561L12.327 42.2439L15.6533 42.439L18.9796 42.5366H21.0341L25.9258 42.3414L29.0565 42.0488L32.9698 41.561L34.3395 41.2683L35.0243 41.1707L34.9265 44.2927L34.633 44.6829L33.0676 45.0732L30.2305 45.4634L26.2193 45.8536L22.7951 46.0488H16.6316L13.0118 45.8536L8.41364 45.3658L5.28297 44.878L4.69597 44.5853L4.50031 44.0975V41.1707Z" fill="#17BC3D"/>
<path d="M35.9048 13.3659L36.394 13.6586L37.3723 14.5366L38.155 15.2196L38.8398 15.8049V16.0001L39.2312 16.1952L39.4268 16.4879V18.244L39.2312 20.9757L39.0355 21.6586L38.5463 22.0488L37.6658 21.9513L36.5897 21.3659L36.2962 20.8781V19.7074L36.4918 16.5854L36.5897 15.4147L35.9048 14.5366V13.3659Z" fill="#17BC3D"/>
<path d="M3.32633 13.3659L3.61983 13.4635L3.522 14.6342L2.83717 15.3171L3.13067 19.122V21.0732L2.348 21.6586L1.4675 22.0488H0.782667L0.391333 21.6586L0.195667 20.9757L0 17.8537V16.5854L0.684833 15.8049L2.348 14.244L3.32633 13.3659Z" fill="#17BC3D"/>
<path d="M5.28295 46.0488L6.45695 46.2439L10.6638 46.7317L11.0551 46.8293L10.8595 47.4146L10.0768 47.8049L9.09845 48H7.82662L5.77212 47.7073L5.38079 47.4146L5.18512 46.6341V46.1463L5.28295 46.0488Z" fill="#17BC3D"/>
<path d="M33.9481 46.0488H34.2416V46.7317L33.9481 47.4146L33.5568 47.7073L32.7741 47.9024H29.937L28.763 47.6097L28.4695 47.2195V46.8293L29.8391 46.6341L33.459 46.1463L33.9481 46.0488Z" fill="#17BC3D"/>
<path d="M100.987 12.664V35H96.5068V20.472L90.5228 35H87.1308L81.1148 20.472V35H76.6348V12.664H81.7228L88.8268 29.272L95.9308 12.664H100.987ZM113.288 35.288C111.581 35.288 110.045 34.9147 108.68 34.168C107.315 33.4 106.237 32.3227 105.448 30.936C104.68 29.5493 104.296 27.9493 104.296 26.136C104.296 24.3227 104.691 22.7227 105.48 21.336C106.291 19.9493 107.389 18.8827 108.776 18.136C110.163 17.368 111.709 16.984 113.416 16.984C115.123 16.984 116.669 17.368 118.056 18.136C119.443 18.8827 120.531 19.9493 121.32 21.336C122.131 22.7227 122.536 24.3227 122.536 26.136C122.536 27.9493 122.12 29.5493 121.288 30.936C120.477 32.3227 119.368 33.4 117.96 34.168C116.573 34.9147 115.016 35.288 113.288 35.288ZM113.288 31.384C114.099 31.384 114.856 31.192 115.56 30.808C116.285 30.4027 116.861 29.8053 117.288 29.016C117.715 28.2267 117.928 27.2667 117.928 26.136C117.928 24.4507 117.48 23.16 116.584 22.264C115.709 21.3467 114.632 20.888 113.352 20.888C112.072 20.888 110.995 21.3467 110.12 22.264C109.267 23.16 108.84 24.4507 108.84 26.136C108.84 27.8213 109.256 29.1227 110.088 30.04C110.941 30.936 112.008 31.384 113.288 31.384ZM133.214 30.872L137.694 17.272H142.462L135.902 35H130.462L123.934 17.272H128.734L133.214 30.872ZM161.459 25.752C161.459 26.392 161.416 26.968 161.331 27.48H148.371C148.477 28.76 148.925 29.7627 149.715 30.488C150.504 31.2133 151.475 31.576 152.627 31.576C154.291 31.576 155.475 30.8613 156.179 29.432H161.011C160.499 31.1387 159.517 32.5467 158.067 33.656C156.616 34.744 154.835 35.288 152.723 35.288C151.016 35.288 149.48 34.9147 148.115 34.168C146.771 33.4 145.715 32.3227 144.947 30.936C144.2 29.5493 143.827 27.9493 143.827 26.136C143.827 24.3013 144.2 22.6907 144.947 21.304C145.693 19.9173 146.739 18.8507 148.083 18.104C149.427 17.3573 150.973 16.984 152.723 16.984C154.408 16.984 155.912 17.3467 157.235 18.072C158.579 18.7973 159.613 19.832 160.339 21.176C161.085 22.4987 161.459 24.024 161.459 25.752ZM156.819 24.472C156.797 23.32 156.381 22.4027 155.571 21.72C154.76 21.016 153.768 20.664 152.595 20.664C151.485 20.664 150.547 21.0053 149.779 21.688C149.032 22.3493 148.573 23.2773 148.403 24.472H156.819ZM172.441 35.224C170.883 35.224 169.475 34.9573 168.217 34.424C166.979 33.8907 165.998 33.1227 165.273 32.12C164.547 31.1173 164.174 29.9333 164.153 28.568H168.953C169.017 29.4853 169.337 30.2107 169.913 30.744C170.51 31.2773 171.321 31.544 172.345 31.544C173.39 31.544 174.211 31.2987 174.809 30.808C175.406 30.296 175.705 29.6347 175.705 28.824C175.705 28.1627 175.502 27.6187 175.097 27.192C174.691 26.7653 174.179 26.4347 173.561 26.2C172.963 25.944 172.131 25.6667 171.065 25.368C169.614 24.9413 168.43 24.5253 167.513 24.12C166.617 23.6933 165.838 23.064 165.177 22.232C164.537 21.3787 164.217 20.248 164.217 18.84C164.217 17.5173 164.547 16.3653 165.209 15.384C165.87 14.4027 166.798 13.656 167.993 13.144C169.187 12.6107 170.553 12.344 172.089 12.344C174.393 12.344 176.259 12.9093 177.689 14.04C179.139 15.1493 179.939 16.7067 180.089 18.712H175.161C175.118 17.944 174.787 17.3147 174.169 16.824C173.571 16.312 172.771 16.056 171.769 16.056C170.894 16.056 170.19 16.28 169.657 16.728C169.145 17.176 168.889 17.8267 168.889 18.68C168.889 19.2773 169.081 19.7787 169.465 20.184C169.87 20.568 170.361 20.888 170.937 21.144C171.534 21.3787 172.366 21.656 173.433 21.976C174.883 22.4027 176.067 22.8293 176.985 23.256C177.902 23.6827 178.691 24.3227 179.353 25.176C180.014 26.0293 180.345 27.1493 180.345 28.536C180.345 29.7307 180.035 30.84 179.417 31.864C178.798 32.888 177.891 33.7093 176.697 34.328C175.502 34.9253 174.083 35.224 172.441 35.224ZM206.245 17.016C208.421 17.016 210.17 17.688 211.493 19.032C212.837 20.3547 213.509 22.2107 213.509 24.6V35H209.029V25.208C209.029 23.8213 208.677 22.7653 207.973 22.04C207.269 21.2933 206.309 20.92 205.093 20.92C203.877 20.92 202.906 21.2933 202.181 22.04C201.477 22.7653 201.125 23.8213 201.125 25.208V35H196.645V25.208C196.645 23.8213 196.293 22.7653 195.589 22.04C194.885 21.2933 193.925 20.92 192.709 20.92C191.471 20.92 190.49 21.2933 189.765 22.04C189.061 22.7653 188.709 23.8213 188.709 25.208V35H184.229V17.272H188.709V19.416C189.285 18.6693 190.021 18.0827 190.917 17.656C191.834 17.2293 192.837 17.016 193.925 17.016C195.311 17.016 196.549 17.3147 197.637 17.912C198.725 18.488 199.567 19.32 200.165 20.408C200.741 19.384 201.573 18.5627 202.661 17.944C203.77 17.3253 204.965 17.016 206.245 17.016ZM216.608 26.072C216.608 24.28 216.96 22.6907 217.664 21.304C218.389 19.9173 219.36 18.8507 220.576 18.104C221.813 17.3573 223.189 16.984 224.704 16.984C226.026 16.984 227.178 17.2507 228.16 17.784C229.162 18.3173 229.962 18.9893 230.56 19.8V17.272H235.072V35H230.56V32.408C229.984 33.24 229.184 33.9333 228.16 34.488C227.157 35.0213 225.994 35.288 224.672 35.288C223.178 35.288 221.813 34.904 220.576 34.136C219.36 33.368 218.389 32.2907 217.664 30.904C216.96 29.496 216.608 27.8853 216.608 26.072ZM230.56 26.136C230.56 25.048 230.346 24.12 229.92 23.352C229.493 22.5627 228.917 21.9653 228.192 21.56C227.466 21.1333 226.688 20.92 225.856 20.92C225.024 20.92 224.256 21.1227 223.552 21.528C222.848 21.9333 222.272 22.5307 221.824 23.32C221.397 24.088 221.184 25.0053 221.184 26.072C221.184 27.1387 221.397 28.0773 221.824 28.888C222.272 29.6773 222.848 30.2853 223.552 30.712C224.277 31.1387 225.045 31.352 225.856 31.352C226.688 31.352 227.466 31.1493 228.192 30.744C228.917 30.3173 229.493 29.72 229.92 28.952C230.346 28.1627 230.56 27.224 230.56 26.136ZM243.927 20.024C244.503 19.0853 245.25 18.3493 246.167 17.816C247.106 17.2827 248.173 17.016 249.367 17.016V21.72H248.183C246.775 21.72 245.709 22.0507 244.983 22.712C244.279 23.3733 243.927 24.5253 243.927 26.168V35H239.447V17.272H243.927V20.024ZM257.601 20.952V29.528C257.601 30.1253 257.739 30.5627 258.017 30.84C258.315 31.096 258.806 31.224 259.489 31.224H261.569V35H258.753C254.977 35 253.089 33.1653 253.089 29.496V20.952H250.977V17.272H253.089V12.888H257.601V17.272H261.569V20.952H257.601Z" fill="#17BC3D"/>
</svg>
