<svg width="40" height="48" viewBox="0 0 40 48" fill="none" xmlns="http://www.w3.org/2000/svg">
<path d="M7.92447 0H14.2836L14.5771 1.26829L14.9685 2.34146L15.5555 3.31707L16.0446 3.90244L17.023 4.58537L18.0991 5.07317L18.8818 5.26829H20.4471L21.6211 4.97561L22.893 4.29268L23.6756 3.60976L24.4583 2.43902L24.8496 1.36585L25.1431 0H31.6001L34.9265 3.31707V25.2683L34.2416 25.3659L32.872 25.2683L32.7741 14.6341L32.4806 13.9512L31.8936 13.561L29.937 13.1707L27.002 12.7805L23.48 12.4878L21.0341 12.3902H18.4905L14.7728 12.5854L11.74 12.878L9.00064 13.2683L7.33747 13.6585L6.84831 14.1463L6.65264 14.7317V25.2683L6.45697 25.3659L4.50031 25.2683V3.41463L5.18514 2.63415L7.72881 0.097561L7.92447 0Z" fill="#17BC3D"/>
<path d="M4.59814 27.4146H6.55481L6.65264 27.5122L6.84831 29.0732L7.43531 30.8293L8.21797 32.2927L9.39197 33.561L10.7616 34.439L12.0335 35.0244L13.5988 35.4146L15.6533 35.7073L16.9251 35.8049H22.5016L25.3388 35.5122L27.002 35.122L28.2738 34.6342L29.5456 33.9512L30.7196 32.8781L31.5023 31.9024L32.0893 30.7317L32.5785 29.2683L32.872 27.4146H34.9265V37.0732L33.6546 37.561L33.3611 37.9512L32.7741 40.5854L31.7958 40.7805H31.0131L30.7196 38.8293V38.6342L30.0348 38.7317L28.763 39.3171L27.7846 40.6829L27.2955 40.8781L25.4366 41.0732L23.7735 41.1707H15.1641L12.6205 40.9756L11.74 40.7805L10.6638 39.3171L9.29414 38.7317L8.70714 38.6342L8.41364 40.6829L8.31581 40.7805H7.53314L6.75047 40.5854L6.45697 39.7073L6.06564 37.9512V37.6585L4.59814 37.0732L4.50031 36.9756V27.5122L4.59814 27.4146Z" fill="#17BC3D"/>
<path d="M4.50031 41.1707L5.57647 41.3658L7.92447 41.7561L12.327 42.2439L15.6533 42.439L18.9796 42.5366H21.0341L25.9258 42.3414L29.0565 42.0488L32.9698 41.561L34.3395 41.2683L35.0243 41.1707L34.9265 44.2927L34.633 44.6829L33.0676 45.0732L30.2305 45.4634L26.2193 45.8536L22.7951 46.0488H16.6316L13.0118 45.8536L8.41364 45.3658L5.28297 44.878L4.69597 44.5853L4.50031 44.0975V41.1707Z" fill="#17BC3D"/>
<path d="M35.9048 13.3659L36.394 13.6586L37.3723 14.5366L38.155 15.2196L38.8398 15.8049V16.0001L39.2312 16.1952L39.4268 16.4879V18.244L39.2312 20.9757L39.0355 21.6586L38.5463 22.0488L37.6658 21.9513L36.5897 21.3659L36.2962 20.8781V19.7074L36.4918 16.5854L36.5897 15.4147L35.9048 14.5366V13.3659Z" fill="#17BC3D"/>
<path d="M3.32633 13.3659L3.61983 13.4635L3.522 14.6342L2.83717 15.3171L3.13067 19.122V21.0732L2.348 21.6586L1.4675 22.0488H0.782667L0.391333 21.6586L0.195667 20.9757L0 17.8537V16.5854L0.684833 15.8049L2.348 14.244L3.32633 13.3659Z" fill="#17BC3D"/>
<path d="M5.28295 46.0488L6.45695 46.2439L10.6638 46.7317L11.0551 46.8293L10.8595 47.4146L10.0768 47.8049L9.09845 48H7.82662L5.77212 47.7073L5.38079 47.4146L5.18512 46.6341V46.1463L5.28295 46.0488Z" fill="#17BC3D"/>
<path d="M33.9481 46.0488H34.2416V46.7317L33.9481 47.4146L33.5568 47.7073L32.7741 47.9024H29.937L28.763 47.6097L28.4695 47.2195V46.8293L29.8391 46.6341L33.459 46.1463L33.9481 46.0488Z" fill="#17BC3D"/>
</svg>
